# xmcd CD database file
#
# Track frame offsets:
#	150
#	10203
#	30371
#	43057
#	57583
#	71204
#	78534
#	108581
#	125830
#	145442
#	159453
#	172273
#	188214
#	198455
#	212709
#	231555
#	256300
#	269084
#	283792
#	297677
#	312489
#	328917
#	337432
#	353582
#
# Disc length: 4859 seconds
#
# Revision: 0
# Processed by: cddbd v1.5.1PL2 Copyright (c) Steve Scherf et al.
# Submitted via: CDex 1.51
#
DISCID=a012f918
DTITLE=Neko Case - 4-8-06 The Trocadero Philadelphia, PA
DYEAR=2006
DGENRE=Country
TTITLE0=Neko Case - A Widow's Toast
TTITLE1=Neko Case - Favorite
TTITLE2=Neko Case - If You Knew
TTITLE3=Neko Case - Fox Confessor Brings the Flood
TTITLE4=Neko Case - Set Out Running
TTITLE5=Neko Case - Outro With Bees
TTITLE6=Neko Case - Star Witness
TTITLE7=Neko Case - Dirty Knife
TTITLE8=Neko Case - I Wish I Was the Moon
TTITLE9=Neko Case - The Tigers Have Spoken
TTITLE10=Neko Case - Maybe Saprrow
TTITLE11=Neko Case - Margaret Vs Pauline
TTITLE12=Neko Case - Bathroom Break
TTITLE13=Neko Case - Buckets of Rain
TTITLE14=Neko Case - Deep Red Bells
TTITLE15=Neko Case - Hex
TTITLE16=Neko Case - That Teenage Feeling
TTITLE17=Neko Case - Furnace Room Lullabye
TTITLE18=Neko Case - Hold On, Hold On
TTITLE19=Neko Case - Wayfaring Stranger
TTITLE20=Neko Case - Look For Me (I'll Be Around)
TTITLE21=Neko Case - Band Introductions
TTITLE22=Neko Case - John Saw That Number
TTITLE23=Neko Case - Knock Loud
EXTD=YEAR: 2006
EXTT0=
EXTT1=
EXTT2=
EXTT3=
EXTT4=
EXTT5=
EXTT6=
EXTT7=
EXTT8=
EXTT9=
EXTT10=
EXTT11=
EXTT12=
EXTT13=
EXTT14=
EXTT15=
EXTT16=
EXTT17=
EXTT18=
EXTT19=
EXTT20=
EXTT21=
EXTT22=
EXTT23=
PLAYORDER=
